<svg width="1440" height="80" viewBox="0 0 1440 80" fill="none" xmlns="http://www.w3.org/2000/svg">
<g clip-path="url(#clip0_107_173)">
<g clip-path="url(#clip1_107_173)">
<g clip-path="url(#clip2_107_173)">
<g clip-path="url(#clip3_107_173)">
<g clip-path="url(#clip4_107_173)">
<g clip-path="url(#clip5_107_173)">
<g clip-path="url(#clip6_107_173)">
<path d="M141.979 49.7698H133.323V29.5337L132.583 25.8342L133.36 23.6145H141.979L149.23 36.5627H149.97L155.963 23.6145H164.805L165.175 25.8342L164.805 29.3857V49.7698H156.629L156.74 46.6252V36.3037H156.333L154.928 40.1882L152.264 46.0703H146.345L141.979 36.3037H141.61V39.3003L141.979 49.7698ZM173.351 58.7595L166.655 56.5398L168.135 50.2877L175.534 51.7675C176.397 51.7675 177.018 51.5825 177.398 51.2126C177.783 50.8426 178.049 50.3494 178.197 49.7328H173.647L168.838 37.0806L168.135 32.2713H176.644L178.678 43.7397H179.418L181.453 32.2713H189.962C189.962 32.2713 189.868 32.6585 189.68 33.4329C189.498 34.2123 189.246 35.2432 188.926 36.5257C188.605 37.8082 188.235 39.2189 187.816 40.7579C187.397 42.3018 186.965 43.8556 186.521 45.4192C186.077 46.9878 185.633 48.4257 185.189 49.7328C184.178 52.791 182.686 55.06 180.713 56.5398C178.74 58.0196 176.286 58.7595 173.351 58.7595ZM206.609 49.7698H198.47V30.6435L191.071 31.0135V23.5775H214.193V31.0135L206.609 30.6435V43.8506L207.016 47.5501L206.609 49.7698ZM223.767 49.7698H215.703V38.1905L214.926 34.491L215.703 32.2713H222.214L222.954 33.1222C222.954 33.1222 223.097 33.0161 223.383 32.804C223.664 32.5968 224.063 32.3946 224.581 32.1973C225.099 32 225.703 31.9013 226.394 31.9013C226.887 31.9013 227.381 31.9383 227.874 32.0123C228.367 32.0863 228.749 32.185 229.021 32.3083L232.905 35.8228L229.761 40.9281L224.877 38.1535L223.767 38.5234V49.7698ZM244.41 26.5001L238.935 31.2354L233.46 26.5001L238.935 21.8018L244.41 26.5001ZM242.968 49.7698H234.829V37.5245L234.052 34.565L234.792 32.3083H242.968V49.7698ZM254.954 50.1397C253.129 50.1397 251.469 49.8561 249.975 49.2889C248.485 48.7216 247.308 47.7721 246.445 46.4403C245.582 45.1085 245.15 43.3081 245.15 41.039C245.15 39.288 245.446 37.8328 246.038 36.6737C246.63 35.5145 247.407 34.5822 248.369 33.8769C249.331 33.1764 250.384 32.6782 251.528 32.3823C252.678 32.0863 253.819 31.9383 254.954 31.9383C256.31 31.9383 257.457 31.9926 258.394 32.1011C259.332 32.2146 259.998 32.296 260.392 32.3453L263.278 35.6008L259.948 40.3731L255.694 38.2274C255.151 38.2274 254.67 38.4248 254.251 38.8194C253.832 39.214 253.622 39.9539 253.622 41.039C253.622 42.1735 253.874 42.9258 254.377 43.2957C254.885 43.6657 255.571 43.8506 256.434 43.8506C257.963 43.8506 259.282 43.6459 260.392 43.2365C261.502 42.8321 262.328 42.5065 262.871 42.2599V48.697C261.934 49.1656 260.755 49.5232 259.334 49.7698C257.918 50.0164 256.458 50.1397 254.954 50.1397ZM275.227 49.7698H267.014V29.4967L266.237 25.7972L267.014 23.5775H275.227V29.4967L274.82 39.0783H275.523L277.595 32.3083H286.621V34.528L282.515 40.1512L285.253 43.8506L288.73 47.5871V49.7698H280.073L276.633 43.6657L275.227 44.0356V49.7698ZM301.116 50.1397C299.76 50.1397 298.423 50.0238 297.106 49.792C295.784 49.5552 294.617 49.2519 293.606 48.8819C292.595 48.512 291.867 48.142 291.423 47.7721V40.0402C292.361 40.5581 293.409 41.0267 294.568 41.446C295.727 41.8653 296.906 42.1908 298.105 42.4226C299.298 42.6594 300.438 42.7778 301.523 42.7778C303.027 42.7778 303.78 42.4325 303.78 41.7419C303.78 41.3967 303.627 41.1056 303.321 40.8689C303.01 40.637 302.472 40.3855 301.708 40.1142C300.943 39.8429 299.858 39.4976 298.452 39.0783C296.825 38.5604 295.439 38.0178 294.294 37.4506C293.145 36.8833 292.269 36.1557 291.668 35.2679C291.061 34.38 290.757 33.1962 290.757 31.7164C290.757 29.1514 291.781 27.092 293.828 25.5383C295.875 23.9845 298.872 23.2076 302.818 23.2076C303.607 23.2076 304.453 23.2396 305.356 23.3038C306.253 23.363 306.973 23.4419 307.516 23.5405L312.066 26.6111L310.217 32.2343L300.746 29.8296C299.76 29.8296 299.266 30.1626 299.266 30.8285C299.266 31.3464 299.582 31.7706 300.213 32.1011C300.84 32.4365 301.979 32.8879 303.632 33.4551C305.827 34.195 307.573 34.9522 308.87 35.7266C310.162 36.506 311.092 37.3889 311.66 38.3754C312.227 39.362 312.51 40.5335 312.51 41.8899C312.51 44.3562 311.561 46.3466 309.662 47.8609C307.763 49.3801 304.914 50.1397 301.116 50.1397ZM323.794 50.1397C321.623 50.1397 320.033 49.6958 319.021 48.8079C318.01 47.9201 317.505 46.6252 317.505 44.9235V37.9685H314.434V33.3441L317.135 31.5314L319.761 26.9441H325.607V32.3083H331.156V38.2274H325.607V43.9246L331.156 43.8876V49.0299C331.156 49.0299 330.934 49.0842 330.49 49.1927C330.046 49.3061 329.461 49.4368 328.736 49.5848C328.006 49.7328 327.21 49.8635 326.346 49.977C325.483 50.0855 324.632 50.1397 323.794 50.1397ZM355.905 49.7698H335.225L334.485 47.5501L335.225 43.8506V23.5775H354.277L356.127 24.6874L353.686 30.9765L350.356 30.6065H343.438V33.5661H352.576V39.6702H347.47L343.438 39.3003V42.7408H353.686L358.088 47.4021L355.905 49.7698ZM368.409 49.7698H360.345V38.1905L359.568 34.491L360.345 32.2713H366.856L367.596 33.1222C367.596 33.1222 367.736 33.0161 368.017 32.804C368.303 32.5968 368.705 32.3946 369.223 32.1973C369.741 32 370.345 31.9013 371.036 31.9013C371.529 31.9013 372.023 31.9383 372.516 32.0123C373.009 32.0863 373.391 32.185 373.663 32.3083L377.547 35.8228L374.403 40.9281L369.519 38.1535L368.409 38.5234V49.7698Z" fill="black"/>
</g>
</g>
</g>
</g>
<g clip-path="url(#clip7_107_173)">
<g clip-path="url(#clip8_107_173)">
<path d="M95.1481 31.9749C93.5292 31.7051 92.0182 31.4353 90.4533 31.1654C87.4314 30.6258 84.8951 31.4892 82.8985 33.8096C82.4128 34.3493 81.9271 34.8349 81.4954 35.4285C80.9018 36.184 80.4162 36.9395 79.175 36.8316C78.1497 36.7236 77.3943 37.9108 77.4482 38.9901C77.5561 40.1233 78.4735 40.9327 79.6067 40.9327C80.686 40.8788 81.7653 40.0154 81.5494 38.9901C81.2256 37.5331 82.197 37.1014 83.0604 36.4538C85.2728 34.781 87.6472 34.4032 90.1295 35.8602C90.9929 36.3459 91.2088 37.587 90.5073 38.2886C89.8597 38.9361 89.8057 39.6916 89.9676 40.501C90.2374 41.6882 90.5612 42.8214 90.7771 44.0086C90.885 44.6562 91.2627 44.98 91.8563 44.872C95.7956 44.0086 97.7923 43.523 101.786 43.6849C104.915 43.7388 107.236 43.7928 108.855 44.3864C109.556 44.6562 110.366 44.2245 110.528 43.469C110.689 42.6596 110.851 41.9041 110.959 40.8788C111.013 40.1773 110.743 39.4218 110.528 38.7203C110.096 37.3712 110.096 36.0221 110.959 34.8889C112.47 33.0002 114.413 31.867 117.003 32.3526C118.46 32.6224 119.485 33.4858 120.187 34.727C120.565 35.4285 120.834 36.0221 120.187 36.7776C119.485 37.587 119.917 38.8821 120.888 39.4218C121.806 39.9614 122.939 39.6376 123.533 38.7742C124.126 37.8568 123.856 36.7236 122.993 36.0221C122.669 35.7523 122.291 35.3746 122.184 34.9968C121.428 30.41 118.514 27.8737 113.657 27.6578C110.797 27.5499 108.315 28.2514 106.426 30.4639C106.049 30.8956 105.617 31.3273 105.131 31.867C104.753 30.8417 104.484 29.9243 104.16 29.0609C101.947 23.2329 97.5764 19.9951 91.5865 18.754C89.374 18.3222 87.1076 18.1604 84.8411 17.8366C84.4634 17.7826 83.9777 17.5128 83.7079 17.189C82.8445 16.0558 81.4415 15.732 80.3622 16.5415C79.3369 17.2969 79.175 18.754 79.9845 19.7792C80.8479 20.8585 82.2509 20.8585 83.3841 19.9951C83.654 19.7792 84.1936 19.6174 84.5713 19.7253C85.7585 20.0491 86.9457 20.4808 88.0789 20.9664C92.7737 22.9631 94.3926 27.0642 95.256 31.6511C95.256 31.7051 95.202 31.813 95.1481 31.9749Z" fill="black"/>
<path d="M108.207 50.4842C108.477 49.7287 109.448 48.1638 109.448 45.5196C109.448 45.4656 109.448 45.3577 109.448 45.3037C109.34 45.3037 109.178 45.2498 109.07 45.2498C107.452 44.6562 105.131 44.6562 102.001 44.5482C98.116 44.3864 96.1194 44.8181 92.3959 45.6815C92.4499 48.2177 93.4212 49.7287 93.6371 50.4842C94.1767 52.0491 93.5292 52.8046 93.5292 52.8046C93.5292 52.8046 93.691 54.4235 94.2307 55.125C94.7163 55.7725 96.9288 54.8012 97.1986 56.8518C97.2526 57.2296 97.5224 57.4994 97.8462 57.6073C97.9541 57.6613 98.0081 57.6613 98.116 57.7152V57.7692L98.062 58.093C98.0081 58.3088 98.17 58.5247 98.3858 58.5786C98.6017 58.6326 98.8175 58.4707 98.8715 58.2548L98.9255 57.9311V57.8771H98.9794C98.9794 57.9311 98.9255 57.985 98.9255 58.039V58.3628C98.9255 58.5786 99.0873 58.7945 99.3032 58.7945C99.5191 58.7945 99.627 58.6326 99.6809 58.4167L99.627 58.3628V58.6866C99.627 58.9024 99.8968 59.1183 100.167 59.1183C100.382 59.1183 100.598 58.9564 100.652 58.7945C100.706 59.0103 101.03 59.1183 101.246 59.1183C101.462 59.1183 101.839 58.9024 101.839 58.6866V58.3628C101.839 58.2548 101.678 58.1469 101.57 58.093C101.893 58.093 102.217 58.039 102.487 58.039C102.379 58.1469 102.325 58.2548 102.325 58.3628V58.6866C102.325 58.9564 102.379 59.0643 102.595 59.0643H102.649C102.919 59.0643 102.865 58.9024 102.865 58.6866V58.6326C103.404 58.7945 103.242 58.8484 103.404 58.8484H103.512C103.728 58.7945 103.89 58.5786 103.89 58.3628L103.836 58.093C103.836 57.985 103.728 57.8771 103.674 57.8231C103.782 57.7692 103.89 57.7692 103.998 57.7152C104.322 57.6073 104.592 57.2835 104.646 56.9597C104.915 54.9091 107.182 55.8805 107.667 55.2329C108.207 54.5314 108.369 52.9125 108.369 52.9125C108.369 52.9125 107.667 52.0491 108.207 50.4842ZM96.3352 53.0744C95.7956 53.0744 95.202 52.6967 95.0401 52.265C94.8782 51.8333 94.8243 51.0238 94.9322 50.4302C95.0401 49.8906 95.6877 49.243 96.4432 48.9732C97.1986 48.7034 98.116 48.7574 98.5477 49.0811C98.9794 49.4049 99.3572 50.1604 99.3572 50.754C99.3572 51.4015 98.9255 52.157 98.3319 52.4268C97.7922 52.8585 96.8749 53.0744 96.3352 53.0744ZM100.922 55.2329C100.005 55.2329 99.7889 54.9091 99.7889 54.9091C99.7889 54.9091 99.8968 52.211 100.922 52.211C101.947 52.211 102.055 54.9091 102.055 54.9091C102.055 54.9091 101.839 55.2329 100.922 55.2329ZM102.973 58.093C102.919 58.039 102.865 57.985 102.811 57.985C102.865 57.985 102.973 57.985 103.027 57.9311C103.027 57.985 102.973 58.039 102.973 58.093ZM106.858 52.265C106.696 52.6967 106.103 53.0744 105.563 53.0744C105.023 53.0744 104.106 52.8046 103.512 52.5348C102.973 52.211 102.487 51.4555 102.487 50.8619C102.487 50.2144 102.865 49.4589 103.296 49.1891C103.728 48.8653 104.699 48.8113 105.401 49.0811C106.156 49.297 106.804 49.9445 106.912 50.5381C107.02 51.0238 106.966 51.8333 106.858 52.265Z" fill="black"/>
<path d="M105.455 60.3054C104.861 59.442 105.401 58.4167 104.592 58.3628C104.214 58.3628 103.944 59.2801 102.865 60.1975C102.865 59.9817 102.649 59.8198 102.433 59.8737H102.487C102.271 59.9277 102.163 60.1975 102.217 60.4134L102.271 60.5753C102.163 60.4673 102.055 60.4673 101.893 60.4673H101.84C101.624 60.5213 101.462 60.7371 101.57 61.007L101.624 61.2768C101.678 61.3847 101.732 61.4926 101.893 61.5466C101.732 61.7085 101.57 61.8164 101.408 61.8704C101.462 61.8164 101.462 61.7624 101.462 61.6545V61.3307C101.462 61.1149 101.246 60.899 101.03 60.953C100.922 60.953 100.814 61.007 100.76 61.0609C100.706 61.007 100.598 60.953 100.49 60.899C100.275 60.8451 100.059 61.007 100.005 61.2228L99.9508 61.5466V61.6006C99.8968 61.5466 99.8429 61.5466 99.7889 61.4926C99.8429 61.4387 99.9508 61.3847 99.9508 61.2768L100.059 60.953C100.167 60.7372 100.059 60.4673 99.8429 60.4134C99.627 60.3054 99.3572 60.4134 99.3033 60.6292L99.2493 60.7371L99.3572 60.4134C99.4112 60.1975 99.3033 59.9277 99.0874 59.8737C98.9255 59.8198 98.7636 59.8737 98.6557 59.9817C98.17 59.2801 97.7923 58.5247 97.5764 58.2549C97.4145 58.093 97.1987 58.1469 97.0908 58.3088C96.9289 58.7405 97.0908 59.8198 96.6591 60.3054C96.2813 60.7372 99.8968 64.4606 100.976 64.4606C101.947 64.6764 105.833 60.899 105.455 60.3054ZM99.1953 60.899L99.1414 61.007C99.1414 60.953 99.1953 60.953 99.1953 60.899Z" fill="black"/>
</g>
</g>
</g>
</g>
</g>
<defs>
<clipPath id="clip0_107_173">
<rect width="301" height="48.5613" fill="white" transform="translate(77 16)"/>
</clipPath>
<clipPath id="clip1_107_173">
<rect width="300.109" height="48.3777" fill="white" transform="translate(77.4455 16.0918)"/>
</clipPath>
<clipPath id="clip2_107_173">
<rect width="300.109" height="48.3777" fill="white" transform="translate(77.4455 16.0918)"/>
</clipPath>
<clipPath id="clip3_107_173">
<rect width="244.979" height="36.9577" fill="white" transform="translate(132.575 21.8018)"/>
</clipPath>
<clipPath id="clip4_107_173">
<rect width="244.979" height="36.9577" fill="white" transform="translate(132.575 21.8018)"/>
</clipPath>
<clipPath id="clip5_107_173">
<rect width="244.979" height="36.9577" fill="white" transform="translate(132.575 21.8018)"/>
</clipPath>
<clipPath id="clip6_107_173">
<rect width="244.979" height="36.9577" fill="white" transform="translate(132.575 21.8018)"/>
</clipPath>
<clipPath id="clip7_107_173">
<rect width="46.4051" height="48.3777" fill="white" transform="translate(77.4455 16.0918)"/>
</clipPath>
<clipPath id="clip8_107_173">
<rect width="46.4051" height="48.3777" fill="white" transform="translate(77.4455 16.0918)"/>
</clipPath>
</defs>
</svg>
